<svg id="Layer_1" data-name="Layer 1" xmlns="http://www.w3.org/2000/svg" xmlns:xlink="http://www.w3.org/1999/xlink" viewBox="0 0 754.38 640.6"><defs><style>.cls-1{fill:none;}.cls-2{isolation:isolate;}.cls-3{fill:#871014;}.cls-4{clip-path:url(#clip-path);}.cls-5{fill:#7b0f13;}.cls-6{clip-path:url(#clip-path-2);}.cls-7{fill:#931116;}.cls-8{fill:#981217;}.cls-9{fill:#9c1218;}.cls-10{fill:#861014;}.cls-11{fill:#9a1217;}.cls-12{clip-path:url(#clip-path-3);}.cls-13{clip-path:url(#clip-path-4);}.cls-14{fill:#800f13;}.cls-15{fill:#851014;}.cls-16{fill:#891015;}.cls-17{fill:#8e1116;}.cls-18{fill:#cf181f;}.cls-19{clip-path:url(#clip-path-5);}.cls-20{clip-path:url(#clip-path-6);}.cls-21{clip-path:url(#clip-path-7);}.cls-22{clip-path:url(#clip-path-8);}.cls-23{fill:#fff;}.cls-24{fill:#0093b0;}</style><clipPath id="clip-path" transform="translate(-130.16 -128.44)"><path class="cls-1" d="M813.2,465.66,836,478.06a111.42,111.42,0,0,1,28.33,21.75l-22.79-12.4A111.42,111.42,0,0,0,813.2,465.66Z"/></clipPath><clipPath id="clip-path-2" transform="translate(-130.16 -128.44)"><path class="cls-1" d="M696.68,696.75l-22.79-12.4a115.56,115.56,0,0,0,18.28,7.93c20.71,7,36.47,8.75,46.06,7.4q.83-.12,1.59-.26l22.79,12.4q-.76.15-1.59.26c-9.59,1.35-25.35-.42-46.06-7.4A115.56,115.56,0,0,1,696.68,696.75Z"/></clipPath><clipPath id="clip-path-3" transform="translate(-130.16 -128.44)"><path class="cls-1" d="M830.71,435.84l22.79,12.4A179,179,0,0,0,825.3,436c-24.71-8.34-48.71-10.53-71.21-7.37l-22.79-12.4c22.5-3.16,46.5-1,71.21,7.37A179,179,0,0,1,830.71,435.84Z"/></clipPath><clipPath id="clip-path-4" transform="translate(-130.16 -128.44)"><path class="cls-1" d="M672.83,723.64,650,711.24c-24.89-13.54-43.18-32.84-54.08-59.9-12.71-32.11-11.14-76.28,6.82-122.37,24.86-63,71.94-104.83,128.52-112.78l22.79,12.4c-56.58,8-103.66,49.76-128.52,112.78-18,46.09-19.52,90.26-6.82,122.37C629.65,690.81,647.93,710.1,672.83,723.64Z"/></clipPath><clipPath id="clip-path-5" transform="translate(-130.16 -128.44)"><path class="cls-1" d="M421.22,606.88l-22.79-12.4a73.44,73.44,0,0,0,44.7,8.12c40.43-5.68,76.85-45.21,97.45-98.09l22.79,12.4c-20.6,52.88-57,92.41-97.45,98.09a73.44,73.44,0,0,1-44.7-8.12Z"/></clipPath><clipPath id="clip-path-6" transform="translate(-130.16 -128.44)"><path class="cls-1" d="M516.37,361.36l22.79,12.4c44.46,24.19,45.42,88.69,24.2,143.14l-22.79-12.4C561.79,450,560.84,385.55,516.37,361.36Z"/></clipPath><clipPath id="clip-path-7" transform="translate(-130.16 -128.44)"><path class="cls-1" d="M537,333.73l22.79,12.4a116.66,116.66,0,0,0-18.47-8l-22.79-12.4A116.66,116.66,0,0,1,537,333.73Z"/></clipPath><clipPath id="clip-path-8" transform="translate(-130.16 -128.44)"><path class="cls-1" d="M400.58,634.53l-22.79-12.4c-54.53-29.66-71.7-100.4-40-181.65,27.32-70.13,76.08-112.53,127.8-119.81a114.57,114.57,0,0,1,53,5l22.79,12.4a114.57,114.57,0,0,0-53-5c-51.73,7.27-100.49,49.68-127.8,119.81C328.88,534.14,346,604.87,400.58,634.53Z"/></clipPath></defs><title>Logarithmz Logo</title><g class="cls-2"><polygon class="cls-3" points="632.44 583.37 609.65 570.97 644.02 482.75 666.82 495.14 632.44 583.37"/><g class="cls-2"><g class="cls-4"><g class="cls-2"><path class="cls-5" d="M864.32,499.8l-22.79-12.4a111.42,111.42,0,0,0-28.33-21.75L836,478.06a111.42,111.42,0,0,1,28.33,21.75" transform="translate(-130.16 -128.44)"/></g></g></g><g class="cls-2"><g class="cls-6"><g class="cls-2"><path class="cls-7" d="M696.68,696.75l-22.79-12.4q2,1.07,4,2.08l22.79,12.4q-2-1-4-2.08" transform="translate(-130.16 -128.44)"/><path class="cls-8" d="M700.7,698.82l-22.79-12.4a118.22,118.22,0,0,0,14.26,5.85q6.82,2.3,12.91,3.87l22.79,12.4Q721.78,707,715,704.67a118.22,118.22,0,0,1-14.26-5.85" transform="translate(-130.16 -128.44)"/><path class="cls-9" d="M727.86,708.54l-22.79-12.4c14.42,3.74,25.66,4.59,33.15,3.54q.83-.12,1.59-.26l22.79,12.4q-.76.15-1.59.26c-7.49,1.05-18.73.21-33.15-3.54" transform="translate(-130.16 -128.44)"/></g></g></g><polygon class="cls-10" points="614.19 477.37 591.39 464.97 603.36 434.25 626.15 446.65 614.19 477.37"/><polygon class="cls-11" points="626.15 446.65 603.36 434.25 688.64 463.04 711.44 475.44 626.15 446.65"/><g class="cls-2"><g class="cls-12"><g class="cls-2"><path class="cls-9" d="M754.08,428.6l-22.79-12.4A150.76,150.76,0,0,1,790.42,420l22.79,12.4a150.76,150.76,0,0,0-59.13-3.76" transform="translate(-130.16 -128.44)"/><path class="cls-8" d="M813.21,432.36,790.42,420q6,1.56,12.08,3.61a181.52,181.52,0,0,1,22.05,9.08L847.35,445A181.52,181.52,0,0,0,825.3,436q-6.07-2.05-12.08-3.61" transform="translate(-130.16 -128.44)"/><path class="cls-7" d="M847.35,445l-22.79-12.4q3.19,1.57,6.16,3.19l22.79,12.4q-3-1.61-6.16-3.19" transform="translate(-130.16 -128.44)"/></g></g></g><g class="cls-2"><g class="cls-13"><g class="cls-2"><path class="cls-5" d="M672.83,723.64,650,711.24c-24.89-13.54-43.18-32.84-54.08-59.9-12.29-31.05-11.23-73.4,5.11-117.84l22.79,12.4c-16.33,44.45-17.4,86.79-5.11,117.84,10.9,27.06,29.19,46.35,54.08,59.9" transform="translate(-130.16 -128.44)"/><path class="cls-14" d="M623.85,545.9l-22.79-12.4q.83-2.26,1.71-4.52a229.53,229.53,0,0,1,11.32-24.46l22.79,12.4a229.53,229.53,0,0,0-11.32,24.46q-.88,2.26-1.71,4.52" transform="translate(-130.16 -128.44)"/><path class="cls-15" d="M636.89,516.92l-22.79-12.4a206.76,206.76,0,0,1,12.8-20.81l22.79,12.4a206.76,206.76,0,0,0-12.8,20.81" transform="translate(-130.16 -128.44)"/><path class="cls-16" d="M649.69,496.1l-22.79-12.4a187.91,187.91,0,0,1,13-16.5l22.79,12.4a187.91,187.91,0,0,0-13,16.5" transform="translate(-130.16 -128.44)"/><path class="cls-17" d="M662.67,479.6l-22.79-12.4a172.59,172.59,0,0,1,13.9-14.06l22.79,12.4a172.59,172.59,0,0,0-13.9,14.06" transform="translate(-130.16 -128.44)"/><path class="cls-7" d="M676.57,465.55l-22.79-12.4a159.62,159.62,0,0,1,16-12.66l22.79,12.4a159.62,159.62,0,0,0-16,12.66" transform="translate(-130.16 -128.44)"/><path class="cls-8" d="M692.56,452.89l-22.79-12.4a148.44,148.44,0,0,1,21.12-12.2l22.79,12.4a148.44,148.44,0,0,0-21.12,12.2" transform="translate(-130.16 -128.44)"/><path class="cls-9" d="M713.67,440.69l-22.79-12.4a140.25,140.25,0,0,1,40.41-12.09l22.79,12.4a140.25,140.25,0,0,0-40.41,12.09" transform="translate(-130.16 -128.44)"/></g></g></g><path class="cls-18" d="M754.08,428.6c22.5-3.16,46.5-1,71.21,7.37,30,10.12,50.49,25.49,59.24,35.4L864.32,499.8c-11.09-11.69-26.16-23.23-52.28-32-18.24-6.16-36.11-7.94-53-5.57-41.43,5.82-76.92,36.67-97.46,89.37C632.34,626.61,654.64,684.3,715,704.67c20.71,7,36.47,8.75,46.06,7.4q.83-.12,1.59-.26L797,623.59l-52.63-17.77,12-30.72,85.28,28.79-55.4,142.22c-17.38,1.09-50.9,1.19-85.85-10.61-39.18-13.22-67-35.53-81.59-71.75-12.71-32.11-11.14-76.28,6.82-122.37C650.43,478.35,697.51,436.55,754.08,428.6Z" transform="translate(-130.16 -128.44)"/><g class="cls-2"><g class="cls-19"><g class="cls-2"><path class="cls-7" d="M421.22,606.88l-22.79-12.4q1.25.68,2.55,1.32l22.79,12.4q-1.3-.64-2.55-1.32" transform="translate(-130.16 -128.44)"/><path class="cls-8" d="M423.77,608.2,401,595.8a72.33,72.33,0,0,0,8.75,3.59q2.64.89,5.27,1.57l22.79,12.4q-2.63-.68-5.27-1.57a72.33,72.33,0,0,1-8.75-3.59" transform="translate(-130.16 -128.44)"/><path class="cls-9" d="M437.79,613.36,415,601a71.53,71.53,0,0,0,28.13,1.63,80.43,80.43,0,0,0,23.09-7L489,608a80.43,80.43,0,0,1-23.09,7,71.53,71.53,0,0,1-28.13-1.63" transform="translate(-130.16 -128.44)"/><path class="cls-8" d="M489,608l-22.79-12.4a100.23,100.23,0,0,0,14.27-8.27l22.79,12.4A100.23,100.23,0,0,1,489,608" transform="translate(-130.16 -128.44)"/><path class="cls-7" d="M503.29,599.69,480.5,587.3a121.28,121.28,0,0,0,12.14-9.64l22.79,12.4a121.28,121.28,0,0,1-12.14,9.64" transform="translate(-130.16 -128.44)"/><path class="cls-17" d="M515.43,590.06l-22.79-12.4a145,145,0,0,0,11.63-11.79l22.79,12.4a145,145,0,0,1-11.63,11.79" transform="translate(-130.16 -128.44)"/><path class="cls-16" d="M527.07,578.27l-22.79-12.4a172.21,172.21,0,0,0,11.89-15.14L539,563.13a172.21,172.21,0,0,1-11.89,15.14" transform="translate(-130.16 -128.44)"/><path class="cls-15" d="M539,563.13l-22.79-12.4a203.07,203.07,0,0,0,12.53-20.41l22.79,12.4A203.07,203.07,0,0,1,539,563.13" transform="translate(-130.16 -128.44)"/><path class="cls-14" d="M551.49,542.73l-22.79-12.4a233.71,233.71,0,0,0,11.88-25.82l22.79,12.4a233.71,233.71,0,0,1-11.88,25.82" transform="translate(-130.16 -128.44)"/></g></g></g><g class="cls-2"><g class="cls-20"><g class="cls-2"><path class="cls-14" d="M563.37,516.9l-22.79-12.4q.76-1.94,1.48-3.9L564.84,513q-.72,2-1.48,3.9" transform="translate(-130.16 -128.44)"/><path class="cls-5" d="M564.84,513l-22.79-12.4C561.72,447,559.78,385,516.37,361.36l22.79,12.4c43.41,23.61,45.35,85.64,25.68,139.24" transform="translate(-130.16 -128.44)"/></g></g></g><g class="cls-2"><g class="cls-21"><g class="cls-2"><path class="cls-8" d="M541.31,338.11l-22.79-12.4a118.62,118.62,0,0,1,14.29,5.86L555.6,344a118.62,118.62,0,0,0-14.29-5.86" transform="translate(-130.16 -128.44)"/><path class="cls-7" d="M555.6,344l-22.79-12.4q2.13,1,4.18,2.16l22.79,12.4Q557.72,345,555.6,344" transform="translate(-130.16 -128.44)"/></g></g></g><g class="cls-2"><g class="cls-22"><g class="cls-2"><path class="cls-5" d="M400.58,634.53l-22.79-12.4c-53.41-29.05-71-97.51-41.93-176.66l22.79,12.4c-29,79.15-11.48,147.61,41.93,176.66" transform="translate(-130.16 -128.44)"/><path class="cls-14" d="M358.65,457.87l-22.79-12.4q.91-2.49,1.89-5a263.43,263.43,0,0,1,13.43-29.19L374,423.69a263.43,263.43,0,0,0-13.43,29.19q-1,2.5-1.89,5" transform="translate(-130.16 -128.44)"/><path class="cls-15" d="M374,423.69l-22.79-12.4a229.42,229.42,0,0,1,14.16-23l22.79,12.4a229.42,229.42,0,0,0-14.16,23" transform="translate(-130.16 -128.44)"/><path class="cls-16" d="M388.11,400.67l-22.79-12.4a202.21,202.21,0,0,1,14-17.78l22.79,12.4a202.21,202.21,0,0,0-14,17.78" transform="translate(-130.16 -128.44)"/><path class="cls-17" d="M402.09,382.89l-22.79-12.4a179.91,179.91,0,0,1,14.48-14.65l22.79,12.4a179.91,179.91,0,0,0-14.48,14.65" transform="translate(-130.16 -128.44)"/><path class="cls-7" d="M416.57,368.24l-22.79-12.4a160.41,160.41,0,0,1,16.08-12.74l22.79,12.4a160.41,160.41,0,0,0-16.08,12.74" transform="translate(-130.16 -128.44)"/><path class="cls-8" d="M432.65,355.5l-22.79-12.4a142.16,142.16,0,0,1,20.32-11.74L453,343.76a142.16,142.16,0,0,0-20.32,11.74" transform="translate(-130.16 -128.44)"/><path class="cls-9" d="M453,343.76l-22.79-12.4a123.41,123.41,0,0,1,35.36-10.68,114.07,114.07,0,0,1,44.77,2.58l22.79,12.4a114.07,114.07,0,0,0-44.77-2.58A123.41,123.41,0,0,0,453,343.76" transform="translate(-130.16 -128.44)"/><path class="cls-8" d="M533.11,335.66l-22.79-12.4q4.11,1.07,8.2,2.45l22.79,12.4q-4.09-1.38-8.2-2.45" transform="translate(-130.16 -128.44)"/></g></g></g><path class="cls-18" d="M541.31,338.11C612,362,633.6,439.29,599.4,527.09c-29,74.4-77,113.51-126.46,120.47a118.06,118.06,0,0,1-54.49-5.25c-68.38-23.09-92.81-99.87-57.92-189.42,27.32-70.13,76.08-112.53,127.8-119.81A114.57,114.57,0,0,1,541.31,338.11Zm22.06,178.8c22.92-58.82,20-129.35-35.74-148.15a73,73,0,0,0-33.85-3.31c-41.44,5.82-77.16,47.25-97.18,98.64C372,527.28,379.88,594,432.51,611.79A72,72,0,0,0,465.92,615c40.43-5.68,76.85-45.21,97.45-98.09" transform="translate(-130.16 -128.44)"/></g><g class="cls-2"><polygon class="cls-11" points="68.7 398.01 45.9 385.61 156.55 422.96 179.34 435.36 68.7 398.01"/><polygon class="cls-18" points="138.05 122.92 171.48 134.2 68.7 398.01 179.34 435.36 166.85 467.4 22.79 418.76 138.05 122.92"/><polygon class="cls-11" points="138.05 122.92 115.26 110.52 148.68 121.81 171.48 134.2 138.05 122.92"/><polygon class="cls-3" points="22.79 418.76 0 406.37 115.26 110.52 138.05 122.92 22.79 418.76"/></g><path class="cls-23" d="M196.83,301a133.54,133.54,0,0,1,46.6,17.66l-39.14-21,41.25,21.27" transform="translate(-130.16 -128.44)"/><path class="cls-23" d="M196.44,302.43a136.44,136.44,0,0,1,46.24,17.5l1.51-2.59-39.14-21-1.51,2.59,41.25,21.27c1.71.88,3.23-1.7,1.51-2.59l-41.25-21.27c-1.71-.88-3.22,1.67-1.51,2.59l39.14,21a1.5,1.5,0,0,0,1.51-2.59,138.73,138.73,0,0,0-47-17.81c-1.89-.34-2.7,2.55-.8,2.89Z" transform="translate(-130.16 -128.44)"/><path class="cls-23" d="M523.25,372.25a94.07,94.07,0,0,0,24-28.25c3.46-6.25,6.27-13,11.1-18.26" transform="translate(-130.16 -128.44)"/><path class="cls-23" d="M524.31,373.31a98,98,0,0,0,19.33-20.63c5.75-8.31,9.13-18.23,15.79-25.88,1.26-1.45-.85-3.58-2.12-2.12-6.13,7-9.39,15.86-14.38,23.66a95.11,95.11,0,0,1-20.74,22.85c-1.51,1.21.63,3.32,2.12,2.12Z" transform="translate(-130.16 -128.44)"/><path class="cls-23" d="M571,521.12a181.76,181.76,0,0,0,31,3" transform="translate(-130.16 -128.44)"/><path class="cls-23" d="M570.64,522.56a195.93,195.93,0,0,0,31.45,3,1.5,1.5,0,0,0,0-3,190.75,190.75,0,0,1-30.65-2.94c-1.89-.34-2.7,2.55-.8,2.89Z" transform="translate(-130.16 -128.44)"/><path class="cls-23" d="M494.6,584.13A69.83,69.83,0,0,1,504,618.54" transform="translate(-130.16 -128.44)"/><path class="cls-23" d="M493.3,584.88a70.64,70.64,0,0,1,9.23,33.66c0,1.93,3,1.93,3,0a74,74,0,0,0-9.64-35.17,1.5,1.5,0,0,0-2.59,1.51Z" transform="translate(-130.16 -128.44)"/><path class="cls-23" d="M409,529,376.3,554.47" transform="translate(-130.16 -128.44)"/><path class="cls-23" d="M408,528l-32.72,25.46c-1.52,1.18.61,3.29,2.12,2.12l32.72-25.46c1.52-1.18-.61-3.29-2.12-2.12Z" transform="translate(-130.16 -128.44)"/><path class="cls-23" d="M662.09,584h1.82" transform="translate(-130.16 -128.44)"/><path class="cls-23" d="M662.09,585.5h1.82a1.5,1.5,0,1,0,0-3h-1.82a1.5,1.5,0,1,0,0,3Z" transform="translate(-130.16 -128.44)"/><path class="cls-23" d="M678.45,562.18" transform="translate(-130.16 -128.44)"/><path class="cls-23" d="M678.45,563.68a1.5,1.5,0,0,0,0-3,1.5,1.5,0,0,0,0,3Z" transform="translate(-130.16 -128.44)"/><path class="cls-23" d="M694.82,538.55" transform="translate(-130.16 -128.44)"/><path class="cls-23" d="M694.82,540a1.5,1.5,0,0,0,0-3,1.5,1.5,0,0,0,0,3Z" transform="translate(-130.16 -128.44)"/><path class="cls-23" d="M713,520.36" transform="translate(-130.16 -128.44)"/><path class="cls-23" d="M713,521.86a1.5,1.5,0,0,0,0-3,1.5,1.5,0,0,0,0,3Z" transform="translate(-130.16 -128.44)"/><path class="cls-23" d="M736.64,504" transform="translate(-130.16 -128.44)"/><path class="cls-23" d="M736.64,505.5a1.5,1.5,0,0,0,0-3,1.5,1.5,0,0,0,0,3Z" transform="translate(-130.16 -128.44)"/><path class="cls-23" d="M763.91,494.91l1.82,1.82" transform="translate(-130.16 -128.44)"/><path class="cls-23" d="M762.85,496l1.82,1.82a1.5,1.5,0,0,0,2.12-2.12L765,493.85a1.5,1.5,0,0,0-2.12,2.12Z" transform="translate(-130.16 -128.44)"/><path class="cls-23" d="M791.18,489.45" transform="translate(-130.16 -128.44)"/><path class="cls-23" d="M791.18,491a1.5,1.5,0,0,0,0-3,1.5,1.5,0,0,0,0,3Z" transform="translate(-130.16 -128.44)"/><path class="cls-23" d="M820.27,489.45" transform="translate(-130.16 -128.44)"/><path class="cls-23" d="M820.27,491a1.5,1.5,0,0,0,0-3,1.5,1.5,0,0,0,0,3Z" transform="translate(-130.16 -128.44)"/><path class="cls-23" d="M658.45,616.73l-1.82-1.82" transform="translate(-130.16 -128.44)"/><path class="cls-23" d="M659.52,615.67l-1.82-1.82a1.5,1.5,0,0,0-2.12,2.12l1.82,1.82a1.5,1.5,0,0,0,2.12-2.12Z" transform="translate(-130.16 -128.44)"/><path class="cls-23" d="M669.36,653.09h-1.82" transform="translate(-130.16 -128.44)"/><path class="cls-23" d="M669.36,651.59h-1.82a1.5,1.5,0,0,0,0,3h1.82a1.5,1.5,0,0,0,0-3Z" transform="translate(-130.16 -128.44)"/><path class="cls-23" d="M683.91,696.73" transform="translate(-130.16 -128.44)"/><path class="cls-23" d="M683.91,698.23a1.5,1.5,0,0,0,0-3,1.5,1.5,0,0,0,0,3Z" transform="translate(-130.16 -128.44)"/><path class="cls-23" d="M713,731.27" transform="translate(-130.16 -128.44)"/><path class="cls-23" d="M713,732.77a1.5,1.5,0,0,0,0-3,1.5,1.5,0,0,0,0,3Z" transform="translate(-130.16 -128.44)"/><path class="cls-23" d="M736.64,758.55" transform="translate(-130.16 -128.44)"/><path class="cls-23" d="M736.64,760a1.5,1.5,0,0,0,0-3,1.5,1.5,0,0,0,0,3Z" transform="translate(-130.16 -128.44)"/><path class="cls-23" d="M776.64,765.82" transform="translate(-130.16 -128.44)"/><path class="cls-23" d="M776.64,767.32a1.5,1.5,0,0,0,0-3,1.5,1.5,0,0,0,0,3Z" transform="translate(-130.16 -128.44)"/><path class="cls-23" d="M802.09,762.18" transform="translate(-130.16 -128.44)"/><path class="cls-23" d="M802.09,763.68a1.5,1.5,0,0,0,0-3,1.5,1.5,0,0,0,0,3Z" transform="translate(-130.16 -128.44)"/><path class="cls-23" d="M829.36,742.18" transform="translate(-130.16 -128.44)"/><path class="cls-23" d="M829.36,743.68a1.5,1.5,0,0,0,0-3,1.5,1.5,0,0,0,0,3Z" transform="translate(-130.16 -128.44)"/><path class="cls-23" d="M840.27,720.36" transform="translate(-130.16 -128.44)"/><path class="cls-23" d="M840.27,721.86a1.5,1.5,0,0,0,0-3,1.5,1.5,0,0,0,0,3Z" transform="translate(-130.16 -128.44)"/><path class="cls-23" d="M860.27,685.82" transform="translate(-130.16 -128.44)"/><path class="cls-23" d="M860.27,687.32a1.5,1.5,0,0,0,0-3,1.5,1.5,0,0,0,0,3Z" transform="translate(-130.16 -128.44)"/><path class="cls-23" d="M833,647.64" transform="translate(-130.16 -128.44)"/><path class="cls-23" d="M833,649.14a1.5,1.5,0,0,0,0-3,1.5,1.5,0,0,0,0,3Z" transform="translate(-130.16 -128.44)"/><path class="cls-23" d="M245.08,554.83a350.15,350.15,0,0,1,9.43-49.1" transform="translate(-130.16 -128.44)"/><path class="cls-23" d="M246.58,554.83a360.85,360.85,0,0,1,9.37-48.7,1.5,1.5,0,0,0-2.89-.8,366.62,366.62,0,0,0-9.48,49.5c-.23,1.91,2.77,1.9,3,0Z" transform="translate(-130.16 -128.44)"/><path class="cls-23" d="M153,491.31a102.75,102.75,0,0,0,65.32-16.61" transform="translate(-130.16 -128.44)"/><path class="cls-23" d="M153,492.81A105.62,105.62,0,0,0,219.07,476c1.61-1.05.11-3.65-1.51-2.59A102.93,102.93,0,0,1,153,489.81c-1.92-.15-1.91,2.85,0,3Z" transform="translate(-130.16 -128.44)"/><path class="cls-23" d="M154.82,425.65a172.33,172.33,0,0,1,41.91,5.27" transform="translate(-130.16 -128.44)"/><path class="cls-23" d="M154.82,427.15a178.1,178.1,0,0,1,41.51,5.22c1.87.46,2.67-2.43.8-2.89a181.59,181.59,0,0,0-42.31-5.33,1.5,1.5,0,0,0,0,3Z" transform="translate(-130.16 -128.44)"/><path class="cls-23" d="M422,129.26a25.74,25.74,0,0,0-6.89,20.84c.62,4.76,4,13.49,10.43,10.29,3-1.48,5.12-5.6,6.75-8.25,2.1-3.4,3.87-7.25,3.89-11.31,0-6.22-4.2-12-10.59-12.37-1.93-.11-1.92,2.89,0,3,6.42.36,8.48,7.56,7.08,12.83a25.71,25.71,0,0,1-3.41,7.05c-2,3.06-2.17,4.06-6,4.33q-3.58,1.72-4.16-1.77a21.75,21.75,0,0,1-.76-2.77,22.06,22.06,0,0,1-.13-7.77,22.75,22.75,0,0,1,6-12c1.31-1.41-.81-3.54-2.12-2.12Z" transform="translate(-130.16 -128.44)"/><path class="cls-24" d="M434.81,155.5c-8.36,0-12.39,7.83-12.77,15.25-.31,5.95.1,17.83,9.25,14.58,14.49-5.14,14-34.14-4.09-31.62-1.9.27-1.09,3.16.8,2.89,13.77-1.92,12.47,18.65,4.67,24.5-3.52,2.64-7.07.73-7.46-3.67a46.19,46.19,0,0,1-.16-6.69c.33-5.74,3.06-12.29,9.77-12.25a1.5,1.5,0,0,0,0-3Z" transform="translate(-130.16 -128.44)"/><path class="cls-24" d="M452.71,153.59l4.42,29c.29,1.9,3.18,1.09,2.89-.8l-4.42-29c-.29-1.9-3.18-1.09-2.89.8Z" transform="translate(-130.16 -128.44)"/><path class="cls-24" d="M466,156.73a63,63,0,0,0,5.74,28c.8,1.76,3.38.23,2.59-1.51a59.64,59.64,0,0,1-5.33-26.5c0-1.93-3-1.93-3,0Z" transform="translate(-130.16 -128.44)"/><path class="cls-24" d="M492.09,162a22.64,22.64,0,0,0,4.2,21.5c.8,1,2.13.26,2.51-.66,1.9-4.57,3.89-9.66,2.44-14.66a10,10,0,0,0-7.84-7.36c-1.89-.31-2.7,2.58-.8,2.89,9.23,1.53,5.64,12.71,3.3,18.33l2.51-.66A19.52,19.52,0,0,1,495,162.77c.59-1.84-2.31-2.63-2.89-.8Z" transform="translate(-130.16 -128.44)"/><path class="cls-24" d="M511.75,161.82a45.4,45.4,0,0,0,1,19.11,1.5,1.5,0,0,0,2.89-.8,41.75,41.75,0,0,1-1-17.52c.29-1.89-2.6-2.7-2.89-.8Z" transform="translate(-130.16 -128.44)"/><path class="cls-24" d="M524.2,162.18a34.33,34.33,0,0,0,4.28,18.75,1.53,1.53,0,0,0,1.69.69,5.14,5.14,0,0,0,4.09-4.93c.2-1.92-2.81-1.91-3,0l-1.89,2,1.69.69a31.32,31.32,0,0,1-3.87-17.23c.11-1.93-2.89-1.92-3,0Z" transform="translate(-130.16 -128.44)"/><path class="cls-24" d="M555.33,158.7c-6.44.64-11.65,6.77-10.61,13.35,1,6.24,7.66,9.91,13.63,8.8,6.5-1.21,9.71-8.05,8-14.15-2.28-8-10.62-9.07-17.64-7.28-1.87.48-1.08,3.37.8,2.89,5.36-1.36,12.12-1.1,13.95,5.18,1.22,4.2-.6,9.12-5.09,10.29-4.1,1.07-9.22-1.08-10.48-5.32-1.44-4.87,2.57-10.28,7.48-10.76,1.9-.19,1.92-3.19,0-3Z" transform="translate(-130.16 -128.44)"/><path class="cls-24" d="M582.05,154c-5,4-10.78,9.41-8.49,16.48,1.91,5.88,8.36,7.24,12.92,3.28a12.38,12.38,0,0,0,2-16.11c-3.58-5-10.52-6.11-15.81-3.39-1.72.89-.2,3.47,1.51,2.59,8.89-4.58,18.13,6.64,10.91,14.12-4.4,4.55-9.93.53-8.94-5.07.75-4.23,4.88-7.28,8-9.77,1.51-1.2-.62-3.31-2.12-2.12Z" transform="translate(-130.16 -128.44)"/><path class="cls-24" d="M413.33,450.34a33.29,33.29,0,0,0-1.43,28c3.07,7.44,9.44,12.91,16.05,5.4,5.71-6.48,8.81-17.34,5.33-25.53-3-7.13-11-11.66-18.51-9.31-1.84.57-1.05,3.47.8,2.89,6.83-2.13,13.6,2.64,15.53,9.25,1.85,6.34-.46,13.65-4.05,19-1.74,2.58-3.06,4.08-6.32,3.63-2.84-.39-3.41-1.35-4.74-3.68a27.71,27.71,0,0,1-3-8.31,30.24,30.24,0,0,1,2.93-19.8c.88-1.71-1.7-3.23-2.59-1.51Z" transform="translate(-130.16 -128.44)"/><path class="cls-24" d="M435.17,447.64a47.19,47.19,0,0,0,9.31,33.44c1.15,1.52,3.75,0,2.59-1.51a44.77,44.77,0,0,1-8.9-31.93c.2-1.92-2.81-1.91-3,0Z" transform="translate(-130.16 -128.44)"/><path class="cls-24" d="M447.51,447.68a118.35,118.35,0,0,0,8.14,31.08c.73,1.76,3.63,1,2.89-.8a115.59,115.59,0,0,1-8-30.28c-.23-1.89-3.24-1.91-3,0Z" transform="translate(-130.16 -128.44)"/><path class="cls-24" d="M463.07,450.83a17.25,17.25,0,0,0,2.25,21.69,1.52,1.52,0,0,0,2.12,0A20.14,20.14,0,0,0,466,443.68c-1.46-1.24-3.6.87-2.12,2.12a17.14,17.14,0,0,1,1.49,24.6h2.12a14.22,14.22,0,0,1-1.78-18.05c1.06-1.62-1.54-3.13-2.59-1.51Z" transform="translate(-130.16 -128.44)"/><path class="cls-24" d="M477.25,449.81a77,77,0,0,0,6.82,20.58c.86,1.73,3.44.21,2.59-1.51A74.17,74.17,0,0,1,480.14,449c-.34-1.9-3.23-1.09-2.89.8Z" transform="translate(-130.16 -128.44)"/><path class="cls-24" d="M485.87,445.83a51.34,51.34,0,0,0,7.72,24.34c1,1.64,3.61.13,2.59-1.51a48,48,0,0,1-7.31-22.83c-.12-1.92-3.12-1.93-3,0Z" transform="translate(-130.16 -128.44)"/><path class="cls-24" d="M494.85,448.11l5.65,27.23c.39,1.89,3.28,1.09,2.89-.8l-5.65-27.23c-.39-1.89-3.28-1.09-2.89.8Z" transform="translate(-130.16 -128.44)"/><path class="cls-24" d="M508.07,442.21a74.34,74.34,0,0,0,3.3,33.16c.61,1.82,3.51,1,2.89-.8a72.47,72.47,0,0,1-3.2-32.36c.24-1.91-2.76-1.89-3,0Z" transform="translate(-130.16 -128.44)"/><path class="cls-24" d="M304.3,718.93c1.78,10.93-5.82,22,.6,32.31,4.17,6.71,12.13,7.42,17.44,1.46a16.91,16.91,0,0,0,.62-21.13c-5.17-6.47-14.68-7.55-21.6-3.49a1.5,1.5,0,0,0,1.51,2.59c6-3.52,14.64-2.38,18.52,3.84S323.15,753.85,314,754c-8.11.1-9.4-11.23-8.55-17,1-6.44,2.79-12.31,1.72-18.86-.31-1.9-3.2-1.09-2.89.8Z" transform="translate(-130.16 -128.44)"/><path class="cls-24" d="M338.82,718.95a208.15,208.15,0,0,1,7.35,34.13c.24,1.89,3.25,1.91,3,0a212.8,212.8,0,0,0-7.46-34.93c-.56-1.84-3.46-1.06-2.89.8Z" transform="translate(-130.16 -128.44)"/><path class="cls-24" d="M356.78,722.18a164.55,164.55,0,0,0,6.09,42.1,1.5,1.5,0,0,0,2.89-.8,161.36,161.36,0,0,1-6-41.3,1.5,1.5,0,0,0-3,0Z" transform="translate(-130.16 -128.44)"/><path class="cls-24" d="M382.94,731.08a31.94,31.94,0,0,0-.08,24.81c2.46,5.69,8.57,11.13,14.07,5.33,4.89-5.14,6.72-15.19,3.9-21.68-2.51-5.77-9.05-9.37-15.11-7.11-1.79.67-1,3.57.8,2.89,5.21-1.94,10.51,1.61,12,6.73,1.33,4.47.29,13.31-3.47,16.63-1.78,1.57-5.87,1-7.55-.61a10.8,10.8,0,0,1-2-3.55,27.5,27.5,0,0,1-2-7.42,29.94,29.94,0,0,1,2.22-15.24c.73-1.78-2.17-2.56-2.89-.8Z" transform="translate(-130.16 -128.44)"/><path class="cls-24" d="M414.52,727c-1.4,8.5-3.35,19.9,0,28.16,2.46,6.13,9.49,8.11,15.27,5.27,6.38-3.14,8.06-11,6-17.37-2.41-7.49-9.24-12-16.18-14.79-1.79-.73-2.56,2.17-.8,2.89,5,2,9.94,5,12.73,9.72,3.23,5.48,3.1,14.41-3.7,17.08-15.74,6.2-11.69-22.39-10.41-30.17.31-1.89-2.58-2.7-2.89-.8Z" transform="translate(-130.16 -128.44)"/><path class="cls-24" d="M444,728.09,452,760.66c.46,1.87,3.35,1.08,2.89-.8l-7.94-32.57c-.46-1.87-3.35-1.08-2.89.8Z" transform="translate(-130.16 -128.44)"/><path class="cls-24" d="M456.7,729.45a65,65,0,0,0,9.6,33.46c1,1.65,3.6.14,2.59-1.51a61.91,61.91,0,0,1-9.19-31.94,1.5,1.5,0,0,0-3,0Z" transform="translate(-130.16 -128.44)"/><path class="cls-24" d="M466.45,731.57,477.17,768c.54,1.85,3.44,1.06,2.89-.8l-10.72-36.42c-.54-1.85-3.44-1.06-2.89.8Z" transform="translate(-130.16 -128.44)"/></svg>
