<svg id="Layer_1" data-name="Layer 1" xmlns="http://www.w3.org/2000/svg" viewBox="0 0 284.8 294.5"><defs><style>.cls-1{fill:#231f20;}.cls-2,.cls-5{fill:none;}.cls-2{stroke:#231f20;}.cls-2,.cls-3,.cls-4,.cls-5{stroke-miterlimit:10;stroke-width:2px;}.cls-3,.cls-4{font-size:164.7px;font-family:MyanmarMN, Myanmar MN;}.cls-3{fill:#fff;stroke:#fff;}.cls-4{fill:#39b54a;}.cls-4,.cls-5{stroke:#00a651;}.cls-5{stroke-dasharray:15.94 15.94;}</style></defs><title>superstufzlogo</title><polygon class="cls-1" points="283.58 135.46 257.68 172.93 256.62 218.46 213.63 233.52 186.04 269.77 142.4 256.65 98.76 269.77 71.17 233.52 28.18 218.46 27.11 172.93 1.22 135.46 27.11 98 28.18 52.47 71.17 37.41 98.76 1.16 142.4 14.28 186.03 1.16 213.63 37.41 256.62 52.47 257.68 98 283.58 135.46"/><polygon class="cls-2" points="283.58 135.46 257.68 172.93 256.62 218.46 213.63 233.52 186.04 269.77 142.4 256.65 98.76 269.77 71.17 233.52 28.18 218.46 27.11 172.93 1.22 135.46 27.11 98 28.18 52.47 71.17 37.41 98.76 1.16 142.4 14.28 186.03 1.16 213.63 37.41 256.62 52.47 257.68 98 283.58 135.46"/><text class="cls-3" transform="translate(60.34 194.02) scale(0.96 1)">SS</text><text class="cls-4" transform="translate(58.34 187.02) scale(0.96 1)">SS</text><circle class="cls-5" cx="142.4" cy="135.46" r="101.48"/></svg>